ffmpeg started on 2026-04-01 at 11:08:09
Report written to "D:\Convert\FFMetrics\reports\ssim_report-6.txt"
Log level: 32
Command line:
ffmpeg -hide_banner -nostdin -r 24000/1001 -i "F:\\Convert\\files\\[DC] Make Heroine ga Oosugiru - 07_Telegram_HEVC(263).mkv" -r 24000/1001 -i "F:\\Convert\\files\\[DC] Make Heroine ga Oosugiru - 07_Telegram.mp4" -lavfi "[0:v]settb=AVTB,setpts=PTS-STARTPTS,format=pix_fmts=yuv420p10le,fps=24000/1001,scale=1920:1080:flags=lanczos:param0=3:out_range=limited:out_color_matrix=bt709:out_chroma_loc=left,setsar=1/1,setdar=(1920/1080)*(1/1),colorspace=format=yuv420p10:range=tv:primaries=bt709:trc=bt709:space=bt709:fast=0[main];[1:v]settb=AVTB,setpts=PTS-STARTPTS,format=pix_fmts=yuv420p,fps=24000/1001,scale=1920:1080:flags=lanczos:param0=3:out_range=limited:out_color_matrix=bt709:out_chroma_loc=left,setsar=1/1,setdar=(1920/1080)*(1/1),colorspace=format=yuv420p:range=tv:primaries=bt709:trc=bt709:space=bt709:fast=0[ref];[main][ref]ssim=eof_action=endall:stats_file='D\\:/Convert/FFMetrics/logs/ssim_logfile-6.txt'" -f null -
Input #0, matroska,webm, from 'F:\Convert\files\[DC] Make Heroine ga Oosugiru - 07_Telegram_HEVC(263).mkv':
  Metadata:
    COMPATIBLE_BRANDS: isomiso2avc1mp41
    MAJOR_BRAND     : isom
    MINOR_VERSION   : 512
    ENCODER         : Lavf61.7.100
  Duration: 00:24:06.79, start: -0.021000, bitrate: 914 kb/s
  Stream #0:0: Video: hevc (Main 10), yuv420p10le(tv, bt709, progressive), 1920x1080 [SAR 1:1 DAR 16:9], 23.98 fps, 23.98 tbr, 1k tbn (default)
      Metadata:
        HANDLER_NAME    : VideoHandler
        VENDOR_ID       : [0][0][0][0]
        ENCODER         : Lavc61.19.100 libx265
        BPS             : 717107
        DURATION        : 00:24:06.569708333
        NUMBER_OF_FRAMES: 34683
        NUMBER_OF_BYTES : 129668123
        _STATISTICS_WRITING_APP: mkvpropedit v94.0 ('Initiate') 64-bit
        _STATISTICS_WRITING_DATE_UTC: 2026-03-30 10:47:51
        _STATISTICS_TAGS: BPS DURATION NUMBER_OF_FRAMES NUMBER_OF_BYTES
  Stream #0:1: Audio: aac (LC), 48000 Hz, stereo, fltp (default)
      Metadata:
        HANDLER_NAME    : SoundHandler
        VENDOR_ID       : [0][0][0][0]
        ENCODER         : Lavc61.19.100 aac
        BPS             : 193194
        DURATION        : 00:24:06.784000000
        NUMBER_OF_FRAMES: 67819
        NUMBER_OF_BYTES : 34938755
        _STATISTICS_WRITING_APP: mkvpropedit v94.0 ('Initiate') 64-bit
        _STATISTICS_WRITING_DATE_UTC: 2026-03-30 10:47:51
        _STATISTICS_TAGS: BPS DURATION NUMBER_OF_FRAMES NUMBER_OF_BYTES
Input #1, mov,mp4,m4a,3gp,3g2,mj2, from 'F:\Convert\files\[DC] Make Heroine ga Oosugiru - 07_Telegram.mp4':
  Metadata:
    major_brand     : isom
    minor_version   : 512
    compatible_brands: isomiso2avc1mp41
    encoder         : Lavf60.16.100
  Duration: 00:24:06.74, start: 0.000000, bitrate: 3764 kb/s
  Stream #1:0[0x1](und): Video: h264 (High) (avc1 / 0x31637661), yuv420p(tv, bt709, progressive), 1920x1080 [SAR 1:1 DAR 16:9], 3616 kb/s, 23.98 fps, 23.98 tbr, 24k tbn (default)
      Metadata:
        handler_name    : VideoHandler
        vendor_id       : [0][0][0][0]
        encoder         : Lavc60.31.102 h264_qsv
  Stream #1:1[0x2](und): Audio: aac (HE-AACv2) (mp4a / 0x6134706D), 48000 Hz, stereo, fltp, 144 kb/s (default)
      Metadata:
        handler_name    : SoundHandler
        vendor_id       : [0][0][0][0]
Stream mapping:
  Stream #0:0 (hevc) -> settb:default
  Stream #1:0 (h264) -> settb:default
  ssim:default -> Stream #0:0 (wrapped_avframe)
  Stream #0:1 -> #0:1 (aac (native) -> pcm_s16le (native))
Output #0, null, to 'pipe:':
  Metadata:
    COMPATIBLE_BRANDS: isomiso2avc1mp41
    MAJOR_BRAND     : isom
    MINOR_VERSION   : 512
    encoder         : Lavf61.7.100
  Stream #0:0: Video: wrapped_avframe, yuv420p10le(tv, bt709, progressive), 1920x1080 [SAR 1:1 DAR 16:9], q=2-31, 200 kb/s, 23.98 fps, 23.98 tbn
      Metadata:
        encoder         : Lavc61.19.100 wrapped_avframe
  Stream #0:1: Audio: pcm_s16le, 48000 Hz, stereo, s16, 1536 kb/s (default)
      Metadata:
        HANDLER_NAME    : SoundHandler
        VENDOR_ID       : [0][0][0][0]
        _STATISTICS_TAGS: BPS DURATION NUMBER_OF_FRAMES NUMBER_OF_BYTES
        BPS             : 193194
        DURATION        : 00:24:06.784000000
        NUMBER_OF_FRAMES: 67819
        NUMBER_OF_BYTES : 34938755
        _STATISTICS_WRITING_APP: mkvpropedit v94.0 ('Initiate') 64-bit
        _STATISTICS_WRITING_DATE_UTC: 2026-03-30 10:47:51
        encoder         : Lavc61.19.100 pcm_s16le
frame=  114 fps=0.0 q=-0.0 size=N/A time=00:00:04.75 bitrate=N/A speed=9.27x    frame=  285 fps=279 q=-0.0 size=N/A time=00:00:11.88 bitrate=N/A speed=11.6x    frame=  469 fps=306 q=-0.0 size=N/A time=00:00:19.56 bitrate=N/A speed=12.8x    frame=  649 fps=315 q=-0.0 size=N/A time=00:00:27.06 bitrate=N/A speed=13.1x    frame=  829 fps=323 q=-0.0 size=N/A time=00:00:34.57 bitrate=N/A speed=13.5x    frame=  974 fps=316 q=-0.0 size=N/A time=00:00:40.62 bitrate=N/A speed=13.2x    frame= 1131 fps=313 q=-0.0 size=N/A time=00:00:47.17 bitrate=N/A speed=13.1x    frame= 1290 fps=312 q=-0.0 size=N/A time=00:00:53.80 bitrate=N/A speed=  13x    frame= 1443 fps=310 q=-0.0 size=N/A time=00:01:00.18 bitrate=N/A speed=12.9x    frame= 1584 fps=307 q=-0.0 size=N/A time=00:01:06.06 bitrate=N/A speed=12.8x    frame= 1727 fps=304 q=-0.0 size=N/A time=00:01:12.03 bitrate=N/A speed=12.7x    frame= 1894 fps=305 q=-0.0 size=N/A time=00:01:18.99 bitrate=N/A speed=12.7x    frame= 2047 fps=305 q=-0.0 size=N/A time=00:01:25.37 bitrate=N/A speed=12.7x    frame= 2155 fps=298 q=-0.0 size=N/A time=00:01:29.88 bitrate=N/A speed=12.4x    frame= 2316 fps=299 q=-0.0 size=N/A time=00:01:36.59 bitrate=N/A speed=12.5x    frame= 2452 fps=297 q=-0.0 size=N/A time=00:01:42.26 bitrate=N/A speed=12.4x    frame= 2582 fps=294 q=-0.0 size=N/A time=00:01:47.69 bitrate=N/A speed=12.3x    frame= 2750 fps=296 q=-0.0 size=N/A time=00:01:54.69 bitrate=N/A speed=12.4x    frame= 2928 fps=298 q=-0.0 size=N/A time=00:02:02.12 bitrate=N/A speed=12.4x    frame= 3101 fps=300 q=-0.0 size=N/A time=00:02:09.33 bitrate=N/A speed=12.5x    frame= 3281 fps=303 q=-0.0 size=N/A time=00:02:16.84 bitrate=N/A speed=12.6x    frame= 3463 fps=305 q=-0.0 size=N/A time=00:02:24.43 bitrate=N/A speed=12.7x    frame= 3650 fps=307 q=-0.0 size=N/A time=00:02:32.23 bitrate=N/A speed=12.8x    frame= 3835 fps=310 q=-0.0 size=N/A time=00:02:39.95 bitrate=N/A speed=12.9x    frame= 4013 fps=311 q=-0.0 size=N/A time=00:02:47.37 bitrate=N/A speed=  13x    frame= 4195 fps=313 q=-0.0 size=N/A time=00:02:54.96 bitrate=N/A speed=  13x    frame= 4380 fps=314 q=-0.0 size=N/A time=00:03:02.68 bitrate=N/A speed=13.1x    frame= 4560 fps=316 q=-0.0 size=N/A time=00:03:10.19 bitrate=N/A speed=13.2x    frame= 4733 fps=316 q=-0.0 size=N/A time=00:03:17.40 bitrate=N/A speed=13.2x    frame= 4922 fps=318 q=-0.0 size=N/A time=00:03:25.28 bitrate=N/A speed=13.3x    frame= 5101 fps=319 q=-0.0 size=N/A time=00:03:32.75 bitrate=N/A speed=13.3x    frame= 5276 fps=320 q=-0.0 size=N/A time=00:03:40.05 bitrate=N/A speed=13.3x    frame= 5453 fps=320 q=-0.0 size=N/A time=00:03:47.43 bitrate=N/A speed=13.4x    frame= 5631 fps=321 q=-0.0 size=N/A time=00:03:54.85 bitrate=N/A speed=13.4x    frame= 5804 fps=321 q=-0.0 size=N/A time=00:04:02.07 bitrate=N/A speed=13.4x    frame= 5974 fps=322 q=-0.0 size=N/A time=00:04:09.16 bitrate=N/A speed=13.4x    frame= 6159 fps=323 q=-0.0 size=N/A time=00:04:16.88 bitrate=N/A speed=13.5x    frame= 6340 fps=323 q=-0.0 size=N/A time=00:04:24.43 bitrate=N/A speed=13.5x    frame= 6519 fps=324 q=-0.0 size=N/A time=00:04:31.89 bitrate=N/A speed=13.5x    frame= 6706 fps=325 q=-0.0 size=N/A time=00:04:39.69 bitrate=N/A speed=13.6x    frame= 6888 fps=326 q=-0.0 size=N/A time=00:04:47.28 bitrate=N/A speed=13.6x    frame= 7060 fps=326 q=-0.0 size=N/A time=00:04:54.46 bitrate=N/A speed=13.6x    frame= 7239 fps=326 q=-0.0 size=N/A time=00:05:01.92 bitrate=N/A speed=13.6x    frame= 7413 fps=327 q=-0.0 size=N/A time=00:05:09.18 bitrate=N/A speed=13.6x    frame= 7586 fps=327 q=-0.0 size=N/A time=00:05:16.39 bitrate=N/A speed=13.6x    frame= 7764 fps=327 q=-0.0 size=N/A time=00:05:23.82 bitrate=N/A speed=13.6x    frame= 7941 fps=328 q=-0.0 size=N/A time=00:05:31.20 bitrate=N/A speed=13.7x    frame= 8116 fps=328 q=-0.0 size=N/A time=00:05:38.50 bitrate=N/A speed=13.7x    frame= 8294 fps=328 q=-0.0 size=N/A time=00:05:45.92 bitrate=N/A speed=13.7x    frame= 8471 fps=328 q=-0.0 size=N/A time=00:05:53.31 bitrate=N/A speed=13.7x    frame= 8645 fps=329 q=-0.0 size=N/A time=00:06:00.56 bitrate=N/A speed=13.7x    frame= 8805 fps=328 q=-0.0 size=N/A time=00:06:07.24 bitrate=N/A speed=13.7x    frame= 8964 fps=328 q=-0.0 size=N/A time=00:06:13.87 bitrate=N/A speed=13.7x    frame= 9123 fps=328 q=-0.0 size=N/A time=00:06:20.50 bitrate=N/A speed=13.7x    frame= 9285 fps=327 q=-0.0 size=N/A time=00:06:27.26 bitrate=N/A speed=13.6x    frame= 9453 fps=327 q=-0.0 size=N/A time=00:06:34.26 bitrate=N/A speed=13.6x    frame= 9628 fps=328 q=-0.0 size=N/A time=00:06:41.56 bitrate=N/A speed=13.7x    frame= 9804 fps=328 q=-0.0 size=N/A time=00:06:48.90 bitrate=N/A speed=13.7x    frame= 9983 fps=328 q=-0.0 size=N/A time=00:06:56.37 bitrate=N/A speed=13.7x    frame=10151 fps=328 q=-0.0 size=N/A time=00:07:03.38 bitrate=N/A speed=13.7x    frame=10308 fps=328 q=-0.0 size=N/A time=00:07:09.92 bitrate=N/A speed=13.7x    frame=10475 fps=328 q=-0.0 size=N/A time=00:07:16.89 bitrate=N/A speed=13.7x    frame=10639 fps=327 q=-0.0 size=N/A time=00:07:23.73 bitrate=N/A speed=13.7x    frame=10818 fps=328 q=-0.0 size=N/A time=00:07:31.20 bitrate=N/A speed=13.7x    frame=10995 fps=328 q=-0.0 size=N/A time=00:07:38.58 bitrate=N/A speed=13.7x    frame=11165 fps=328 q=-0.0 size=N/A time=00:07:45.67 bitrate=N/A speed=13.7x    frame=11344 fps=328 q=-0.0 size=N/A time=00:07:53.13 bitrate=N/A speed=13.7x    frame=11524 fps=329 q=-0.0 size=N/A time=00:08:00.64 bitrate=N/A speed=13.7x    frame=11705 fps=329 q=-0.0 size=N/A time=00:08:08.19 bitrate=N/A speed=13.7x    frame=11885 fps=329 q=-0.0 size=N/A time=00:08:15.70 bitrate=N/A speed=13.7x    frame=12075 fps=330 q=-0.0 size=N/A time=00:08:23.62 bitrate=N/A speed=13.8x    frame=12253 fps=330 q=-0.0 size=N/A time=00:08:31.05 bitrate=N/A speed=13.8x    frame=12436 fps=330 q=-0.0 size=N/A time=00:08:38.68 bitrate=N/A speed=13.8x    frame=12612 fps=331 q=-0.0 size=N/A time=00:08:46.02 bitrate=N/A speed=13.8x    frame=12795 fps=331 q=-0.0 size=N/A time=00:08:53.65 bitrate=N/A speed=13.8x    frame=12979 fps=331 q=-0.0 size=N/A time=00:09:01.33 bitrate=N/A speed=13.8x    frame=13154 fps=331 q=-0.0 size=N/A time=00:09:08.63 bitrate=N/A speed=13.8x    frame=13334 fps=332 q=-0.0 size=N/A time=00:09:16.13 bitrate=N/A speed=13.8x    frame=13520 fps=332 q=-0.0 size=N/A time=00:09:23.89 bitrate=N/A speed=13.8x    frame=13698 fps=332 q=-0.0 size=N/A time=00:09:31.32 bitrate=N/A speed=13.8x    frame=13872 fps=332 q=-0.0 size=N/A time=00:09:38.57 bitrate=N/A speed=13.9x    frame=14049 fps=332 q=-0.0 size=N/A time=00:09:45.96 bitrate=N/A speed=13.9x    frame=14230 fps=332 q=-0.0 size=N/A time=00:09:53.50 bitrate=N/A speed=13.9x    frame=14411 fps=333 q=-0.0 size=N/A time=00:10:01.05 bitrate=N/A speed=13.9x    frame=14593 fps=333 q=-0.0 size=N/A time=00:10:08.64 bitrate=N/A speed=13.9x    frame=14772 fps=333 q=-0.0 size=N/A time=00:10:16.11 bitrate=N/A speed=13.9x    frame=14953 fps=333 q=-0.0 size=N/A time=00:10:23.66 bitrate=N/A speed=13.9x    frame=15120 fps=333 q=-0.0 size=N/A time=00:10:30.63 bitrate=N/A speed=13.9x    frame=15280 fps=333 q=-0.0 size=N/A time=00:10:37.30 bitrate=N/A speed=13.9x    frame=15469 fps=333 q=-0.0 size=N/A time=00:10:45.18 bitrate=N/A speed=13.9x    frame=15652 fps=333 q=-0.0 size=N/A time=00:10:52.81 bitrate=N/A speed=13.9x    frame=15832 fps=334 q=-0.0 size=N/A time=00:11:00.32 bitrate=N/A speed=13.9x    frame=16018 fps=334 q=-0.0 size=N/A time=00:11:08.08 bitrate=N/A speed=13.9x    frame=16198 fps=334 q=-0.0 size=N/A time=00:11:15.59 bitrate=N/A speed=13.9x    frame=16391 fps=335 q=-0.0 size=N/A time=00:11:23.64 bitrate=N/A speed=  14x    frame=16559 fps=334 q=-0.0 size=N/A time=00:11:30.64 bitrate=N/A speed=13.9x    frame=16742 fps=335 q=-0.0 size=N/A time=00:11:38.28 bitrate=N/A speed=  14x    frame=16925 fps=335 q=-0.0 size=N/A time=00:11:45.91 bitrate=N/A speed=  14x    frame=17106 fps=335 q=-0.0 size=N/A time=00:11:53.46 bitrate=N/A speed=  14x    frame=17278 fps=335 q=-0.0 size=N/A time=00:12:00.63 bitrate=N/A speed=  14x    frame=17459 fps=335 q=-0.0 size=N/A time=00:12:08.18 bitrate=N/A speed=  14x    frame=17635 fps=335 q=-0.0 size=N/A time=00:12:15.52 bitrate=N/A speed=  14x    frame=17811 fps=335 q=-0.0 size=N/A time=00:12:22.86 bitrate=N/A speed=  14x    frame=17997 fps=336 q=-0.0 size=N/A time=00:12:30.62 bitrate=N/A speed=  14x    frame=18184 fps=336 q=-0.0 size=N/A time=00:12:38.42 bitrate=N/A speed=  14x    frame=18355 fps=336 q=-0.0 size=N/A time=00:12:45.55 bitrate=N/A speed=  14x    frame=18537 fps=336 q=-0.0 size=N/A time=00:12:53.14 bitrate=N/A speed=  14x    frame=18715 fps=336 q=-0.0 size=N/A time=00:13:00.57 bitrate=N/A speed=  14x    frame=18900 fps=336 q=-0.0 size=N/A time=00:13:08.28 bitrate=N/A speed=  14x    frame=19081 fps=336 q=-0.0 size=N/A time=00:13:15.83 bitrate=N/A speed=  14x    frame=19266 fps=337 q=-0.0 size=N/A time=00:13:23.55 bitrate=N/A speed=  14x    frame=19447 fps=337 q=-0.0 size=N/A time=00:13:31.10 bitrate=N/A speed=  14x    frame=19630 fps=337 q=-0.0 size=N/A time=00:13:38.73 bitrate=N/A speed=  14x    frame=19807 fps=337 q=-0.0 size=N/A time=00:13:46.11 bitrate=N/A speed=14.1x    frame=19990 fps=337 q=-0.0 size=N/A time=00:13:53.74 bitrate=N/A speed=14.1x    frame=20175 fps=337 q=-0.0 size=N/A time=00:14:01.46 bitrate=N/A speed=14.1x    frame=20351 fps=337 q=-0.0 size=N/A time=00:14:08.80 bitrate=N/A speed=14.1x    frame=20523 fps=337 q=-0.0 size=N/A time=00:14:15.98 bitrate=N/A speed=14.1x    frame=20697 fps=337 q=-0.0 size=N/A time=00:14:23.23 bitrate=N/A speed=14.1x    frame=20875 fps=337 q=-0.0 size=N/A time=00:14:30.66 bitrate=N/A speed=14.1x    frame=21059 fps=338 q=-0.0 size=N/A time=00:14:38.33 bitrate=N/A speed=14.1x    frame=21244 fps=338 q=-0.0 size=N/A time=00:14:46.05 bitrate=N/A speed=14.1x    frame=21419 fps=338 q=-0.0 size=N/A time=00:14:53.35 bitrate=N/A speed=14.1x    frame=21598 fps=338 q=-0.0 size=N/A time=00:15:00.81 bitrate=N/A speed=14.1x    frame=21790 fps=338 q=-0.0 size=N/A time=00:15:08.82 bitrate=N/A speed=14.1x    frame=21972 fps=338 q=-0.0 size=N/A time=00:15:16.41 bitrate=N/A speed=14.1x    frame=22145 fps=338 q=-0.0 size=N/A time=00:15:23.63 bitrate=N/A speed=14.1x    frame=22325 fps=338 q=-0.0 size=N/A time=00:15:31.13 bitrate=N/A speed=14.1x    frame=22506 fps=338 q=-0.0 size=N/A time=00:15:38.68 bitrate=N/A speed=14.1x    frame=22684 fps=338 q=-0.0 size=N/A time=00:15:46.11 bitrate=N/A speed=14.1x    frame=22866 fps=338 q=-0.0 size=N/A time=00:15:53.70 bitrate=N/A speed=14.1x    frame=23034 fps=338 q=-0.0 size=N/A time=00:16:00.70 bitrate=N/A speed=14.1x    frame=23211 fps=338 q=-0.0 size=N/A time=00:16:08.09 bitrate=N/A speed=14.1x    frame=23393 fps=338 q=-0.0 size=N/A time=00:16:15.68 bitrate=N/A speed=14.1x    frame=23577 fps=339 q=-0.0 size=N/A time=00:16:23.35 bitrate=N/A speed=14.1x    frame=23757 fps=339 q=-0.0 size=N/A time=00:16:30.86 bitrate=N/A speed=14.1x    frame=23937 fps=339 q=-0.0 size=N/A time=00:16:38.37 bitrate=N/A speed=14.1x    frame=24122 fps=339 q=-0.0 size=N/A time=00:16:46.08 bitrate=N/A speed=14.1x    frame=24304 fps=339 q=-0.0 size=N/A time=00:16:53.67 bitrate=N/A speed=14.1x    frame=24486 fps=339 q=-0.0 size=N/A time=00:17:01.27 bitrate=N/A speed=14.1x    frame=24671 fps=339 q=-0.0 size=N/A time=00:17:08.98 bitrate=N/A speed=14.2x    frame=24851 fps=339 q=-0.0 size=N/A time=00:17:16.49 bitrate=N/A speed=14.2x    frame=25035 fps=339 q=-0.0 size=N/A time=00:17:24.16 bitrate=N/A speed=14.2x    frame=25206 fps=339 q=-0.0 size=N/A time=00:17:31.30 bitrate=N/A speed=14.2x    frame=25387 fps=339 q=-0.0 size=N/A time=00:17:38.84 bitrate=N/A speed=14.2x    frame=25566 fps=340 q=-0.0 size=N/A time=00:17:46.31 bitrate=N/A speed=14.2x    frame=25745 fps=340 q=-0.0 size=N/A time=00:17:53.78 bitrate=N/A speed=14.2x    frame=25932 fps=340 q=-0.0 size=N/A time=00:18:01.58 bitrate=N/A speed=14.2x    frame=26109 fps=340 q=-0.0 size=N/A time=00:18:08.96 bitrate=N/A speed=14.2x    frame=26294 fps=340 q=-0.0 size=N/A time=00:18:16.67 bitrate=N/A speed=14.2x    frame=26471 fps=340 q=-0.0 size=N/A time=00:18:24.06 bitrate=N/A speed=14.2x    frame=26658 fps=340 q=-0.0 size=N/A time=00:18:31.86 bitrate=N/A speed=14.2x    frame=26833 fps=340 q=-0.0 size=N/A time=00:18:39.15 bitrate=N/A speed=14.2x    frame=27010 fps=340 q=-0.0 size=N/A time=00:18:46.54 bitrate=N/A speed=14.2x    frame=27180 fps=340 q=-0.0 size=N/A time=00:18:53.63 bitrate=N/A speed=14.2x    frame=27352 fps=340 q=-0.0 size=N/A time=00:19:00.80 bitrate=N/A speed=14.2x    frame=27528 fps=340 q=-0.0 size=N/A time=00:19:08.14 bitrate=N/A speed=14.2x    frame=27714 fps=340 q=-0.0 size=N/A time=00:19:15.90 bitrate=N/A speed=14.2x    frame=27895 fps=340 q=-0.0 size=N/A time=00:19:23.45 bitrate=N/A speed=14.2x    frame=28076 fps=340 q=-0.0 size=N/A time=00:19:31.00 bitrate=N/A speed=14.2x    frame=28255 fps=340 q=-0.0 size=N/A time=00:19:38.46 bitrate=N/A speed=14.2x    frame=28436 fps=340 q=-0.0 size=N/A time=00:19:46.01 bitrate=N/A speed=14.2x    frame=28617 fps=340 q=-0.0 size=N/A time=00:19:53.56 bitrate=N/A speed=14.2x    frame=28781 fps=340 q=-0.0 size=N/A time=00:20:00.40 bitrate=N/A speed=14.2x    frame=28954 fps=340 q=-0.0 size=N/A time=00:20:07.62 bitrate=N/A speed=14.2x    frame=29126 fps=340 q=-0.0 size=N/A time=00:20:14.79 bitrate=N/A speed=14.2x    frame=29292 fps=340 q=-0.0 size=N/A time=00:20:21.72 bitrate=N/A speed=14.2x    frame=29467 fps=340 q=-0.0 size=N/A time=00:20:29.01 bitrate=N/A speed=14.2x    frame=29642 fps=340 q=-0.0 size=N/A time=00:20:36.31 bitrate=N/A speed=14.2x    frame=29806 fps=340 q=-0.0 size=N/A time=00:20:43.15 bitrate=N/A speed=14.2x    frame=29977 fps=340 q=-0.0 size=N/A time=00:20:50.29 bitrate=N/A speed=14.2x    frame=30138 fps=340 q=-0.0 size=N/A time=00:20:57.00 bitrate=N/A speed=14.2x    frame=30316 fps=340 q=-0.0 size=N/A time=00:21:04.42 bitrate=N/A speed=14.2x    frame=30492 fps=340 q=-0.0 size=N/A time=00:21:11.77 bitrate=N/A speed=14.2x    frame=30672 fps=340 q=-0.0 size=N/A time=00:21:19.27 bitrate=N/A speed=14.2x    frame=30858 fps=340 q=-0.0 size=N/A time=00:21:27.03 bitrate=N/A speed=14.2x    frame=31036 fps=340 q=-0.0 size=N/A time=00:21:34.45 bitrate=N/A speed=14.2x    frame=31217 fps=340 q=-0.0 size=N/A time=00:21:42.00 bitrate=N/A speed=14.2x    frame=31400 fps=340 q=-0.0 size=N/A time=00:21:49.64 bitrate=N/A speed=14.2x    frame=31576 fps=340 q=-0.0 size=N/A time=00:21:56.98 bitrate=N/A speed=14.2x    frame=31751 fps=340 q=-0.0 size=N/A time=00:22:04.28 bitrate=N/A speed=14.2x    frame=31920 fps=340 q=-0.0 size=N/A time=00:22:11.33 bitrate=N/A speed=14.2x    frame=32103 fps=340 q=-0.0 size=N/A time=00:22:18.96 bitrate=N/A speed=14.2x    frame=32282 fps=340 q=-0.0 size=N/A time=00:22:26.42 bitrate=N/A speed=14.2x    frame=32462 fps=340 q=-0.0 size=N/A time=00:22:33.93 bitrate=N/A speed=14.2x    frame=32638 fps=340 q=-0.0 size=N/A time=00:22:41.27 bitrate=N/A speed=14.2x    frame=32788 fps=340 q=-0.0 size=N/A time=00:22:47.53 bitrate=N/A speed=14.2x    frame=32956 fps=340 q=-0.0 size=N/A time=00:22:54.53 bitrate=N/A speed=14.2x    frame=33126 fps=340 q=-0.0 size=N/A time=00:23:01.63 bitrate=N/A speed=14.2x    frame=33301 fps=340 q=-0.0 size=N/A time=00:23:08.92 bitrate=N/A speed=14.2x    frame=33470 fps=340 q=-0.0 size=N/A time=00:23:15.97 bitrate=N/A speed=14.2x    frame=33626 fps=339 q=-0.0 size=N/A time=00:23:22.48 bitrate=N/A speed=14.2x    frame=33764 fps=339 q=-0.0 size=N/A time=00:23:28.24 bitrate=N/A speed=14.1x    frame=33888 fps=339 q=-0.0 size=N/A time=00:23:33.41 bitrate=N/A speed=14.1x    frame=34048 fps=338 q=-0.0 size=N/A time=00:23:40.08 bitrate=N/A speed=14.1x    frame=34217 fps=338 q=-0.0 size=N/A time=00:23:47.13 bitrate=N/A speed=14.1x    frame=34363 fps=338 q=-0.0 size=N/A time=00:23:53.22 bitrate=N/A speed=14.1x    frame=34501 fps=338 q=-0.0 size=N/A time=00:23:58.97 bitrate=N/A speed=14.1x    [Parsed_ssim_16 @ 0000023c8af7f880] SSIM Y:0.993806 (22.080339) U:0.993999 (22.217721) V:0.993604 (21.940853) All:0.993805 (22.079253)
[out#0/null @ 0000023cfe5ddec0] video:14903KiB audio:271276KiB subtitle:0KiB other streams:0KiB global headers:0KiB muxing overhead: unknown
frame=34683 fps=338 q=-0.0 Lsize=N/A time=00:24:06.57 bitrate=N/A speed=14.1x    
